<svg width="556" height="403" viewBox="0 0 556 403" fill="none" xmlns="http://www.w3.org/2000/svg">
<mask id="mask0_2026_170" style="mask-type:alpha" maskUnits="userSpaceOnUse" x="0" y="0" width="556" height="403">
<rect width="556" height="403" fill="#C4C4C4"/>
</mask>
<g mask="url(#mask0_2026_170)">
<g opacity="0.5">
<mask id="mask1_2026_170" style="mask-type:alpha" maskUnits="userSpaceOnUse" x="29" y="18" width="461" height="375">
<path d="M91.582 387.516L340.142 23.5158H428.022L179.462 387.516H91.582ZM126.422 221.116C108.049 221.116 91.582 217.302 77.022 209.676C62.462 201.702 50.8487 190.089 42.182 174.836C33.862 159.582 29.702 141.209 29.702 119.716C29.702 98.2225 33.862 80.0225 42.182 65.1158C50.8487 49.8625 62.462 38.2491 77.022 30.2758C91.582 22.3025 108.049 18.3158 126.422 18.3158C144.795 18.3158 161.262 22.3025 175.822 30.2758C190.382 38.2491 201.822 49.8625 210.142 65.1158C218.809 80.0225 223.142 98.2225 223.142 119.716C223.142 141.209 218.809 159.582 210.142 174.836C201.822 190.089 190.382 201.702 175.822 209.676C161.262 217.302 144.795 221.116 126.422 221.116ZM126.422 164.956C132.315 164.956 137.515 161.836 142.022 155.596C146.875 149.009 149.302 137.049 149.302 119.716C149.302 102.382 146.875 90.5958 142.022 84.3558C137.515 77.7691 132.315 74.4758 126.422 74.4758C120.875 74.4758 115.675 77.7691 110.822 84.3558C105.969 90.5958 103.542 102.382 103.542 119.716C103.542 137.049 105.969 149.009 110.822 155.596C115.675 161.836 120.875 164.956 126.422 164.956ZM393.182 392.716C374.809 392.716 358.342 388.902 343.782 381.276C329.222 373.302 317.609 361.689 308.942 346.436C300.622 331.182 296.462 312.809 296.462 291.316C296.462 269.822 300.622 251.622 308.942 236.716C317.609 221.462 329.222 209.849 343.782 201.876C358.342 193.902 374.809 189.916 393.182 189.916C411.555 189.916 428.022 193.902 442.582 201.876C457.142 209.849 468.582 221.462 476.902 236.716C485.569 251.622 489.902 269.822 489.902 291.316C489.902 312.809 485.569 331.182 476.902 346.436C468.582 361.689 457.142 373.302 442.582 381.276C428.022 388.902 411.555 392.716 393.182 392.716ZM393.182 336.556C399.075 336.556 404.275 333.436 408.782 327.196C413.635 320.609 416.062 308.649 416.062 291.316C416.062 273.982 413.635 262.196 408.782 255.956C404.275 249.369 399.075 246.076 393.182 246.076C387.635 246.076 382.435 249.369 377.582 255.956C372.729 262.196 370.302 273.982 370.302 291.316C370.302 308.649 372.729 320.609 377.582 327.196C382.435 333.436 387.635 336.556 393.182 336.556Z" fill="#0E0131"/>
</mask>
<g mask="url(#mask1_2026_170)">
<path d="M-129.646 587.438L1319.96 587.438L1319.96 586.43L-129.646 586.43L-129.646 587.438Z" fill="white"/>
<path d="M-460.258 585.422L989.348 585.422L989.348 584.414L-460.258 584.414L-460.258 585.422Z" fill="white"/>
<path d="M-529.287 583.406L920.319 583.406L920.319 582.398L-529.287 582.398L-529.287 583.406Z" fill="white"/>
<path d="M-525.654 581.39L923.952 581.39L923.952 580.382L-525.654 580.382L-525.654 581.39Z" fill="white"/>
<path d="M-264.071 579.374L1185.54 579.374L1185.54 578.366L-264.071 578.366L-264.071 579.374Z" fill="white"/>
<path d="M-394.862 577.358L1054.74 577.358L1054.74 576.35L-394.862 576.35L-394.862 577.358Z" fill="white"/>
<path d="M-391.229 575.342L1058.38 575.342L1058.38 574.334L-391.229 574.334L-391.229 575.342Z" fill="white"/>
<path d="M-129.646 573.326L1319.96 573.326L1319.96 572.318L-129.646 572.318L-129.646 573.326Z" fill="white"/>
<path d="M-460.258 571.31L989.348 571.31L989.348 570.302L-460.258 570.302L-460.258 571.31Z" fill="white"/>
<path d="M-529.287 569.294L920.319 569.295L920.319 568.287L-529.287 568.287L-529.287 569.294Z" fill="white"/>
<path d="M-525.654 567.279L923.952 567.279L923.952 566.271L-525.654 566.271L-525.654 567.279Z" fill="white"/>
<path d="M-264.071 565.263L1185.54 565.263L1185.54 564.255L-264.071 564.255L-264.071 565.263Z" fill="white"/>
<path d="M-394.862 563.247L1054.74 563.247L1054.74 562.239L-394.862 562.239L-394.862 563.247Z" fill="white"/>
<path d="M-391.229 561.231L1058.38 561.231L1058.38 560.223L-391.229 560.223L-391.229 561.231Z" fill="white"/>
<path d="M-129.646 559.215L1319.96 559.215L1319.96 558.207L-129.646 558.207L-129.646 559.215Z" fill="white"/>
<path d="M-565.617 557.199L883.988 557.199L883.988 556.191L-565.617 556.191L-565.617 557.199Z" fill="white"/>
<path d="M-634.647 555.183L814.959 555.183L814.959 554.175L-634.647 554.175L-634.647 555.183Z" fill="white"/>
<path d="M-631.013 553.167L818.592 553.167L818.592 552.159L-631.013 552.159L-631.013 553.167Z" fill="white"/>
<path d="M-369.431 551.151L1080.18 551.151L1080.18 550.144L-369.431 550.143L-369.431 551.151Z" fill="white"/>
<path d="M-500.222 549.135L949.384 549.136L949.384 548.128L-500.222 548.128L-500.222 549.135Z" fill="white"/>
<path d="M-496.589 547.12L953.017 547.12L953.017 546.112L-496.589 546.112L-496.589 547.12Z" fill="white"/>
<path d="M-235.006 545.104L1214.6 545.104L1214.6 544.096L-235.006 544.096L-235.006 545.104Z" fill="white"/>
<path d="M-500.222 543.088L949.384 543.088L949.384 542.08L-500.222 542.08L-500.222 543.088Z" fill="white"/>
<path d="M-569.251 541.072L880.355 541.072L880.355 540.064L-569.251 540.064L-569.251 541.072Z" fill="white"/>
<path d="M-565.617 539.056L883.988 539.056L883.988 538.048L-565.617 538.048L-565.617 539.056Z" fill="white"/>
<path d="M-304.035 537.04L1145.57 537.04L1145.57 536.032L-304.035 536.032L-304.035 537.04Z" fill="white"/>
<path d="M-434.826 535.024L1014.78 535.024L1014.78 534.016L-434.826 534.016L-434.826 535.024Z" fill="white"/>
<path d="M-431.193 533.008L1018.41 533.008L1018.41 532L-431.193 532L-431.193 533.008Z" fill="white"/>
<path d="M-169.61 530.992L1280 530.993L1280 529.985L-169.61 529.985L-169.61 530.992Z" fill="white"/>
<path d="M-500.222 528.977L949.384 528.977L949.384 527.969L-500.222 527.969L-500.222 528.977Z" fill="white"/>
<path d="M-569.251 526.961L880.355 526.961L880.355 525.953L-569.251 525.953L-569.251 526.961Z" fill="white"/>
<path d="M-565.617 524.945L883.988 524.945L883.988 523.937L-565.617 523.937L-565.617 524.945Z" fill="white"/>
<path d="M-304.035 522.929L1145.57 522.929L1145.57 521.921L-304.035 521.921L-304.035 522.929Z" fill="white"/>
<path d="M-434.826 520.913L1014.78 520.913L1014.78 519.905L-434.826 519.905L-434.826 520.913Z" fill="white"/>
<path d="M-431.193 518.897L1018.41 518.897L1018.41 517.889L-431.193 517.889L-431.193 518.897Z" fill="white"/>
<path d="M-169.61 516.881L1280 516.881L1280 515.873L-169.61 515.873L-169.61 516.881Z" fill="white"/>
<path d="M-500.222 514.865L949.384 514.865L949.384 513.857L-500.222 513.857L-500.222 514.865Z" fill="white"/>
<path d="M-569.251 512.849L880.355 512.849L880.355 511.841L-569.251 511.841L-569.251 512.849Z" fill="white"/>
<path d="M-565.617 510.833L883.988 510.834L883.988 509.826L-565.617 509.826L-565.617 510.833Z" fill="white"/>
<path d="M-304.035 508.818L1145.57 508.818L1145.57 507.81L-304.035 507.81L-304.035 508.818Z" fill="white"/>
<path d="M-434.826 506.802L1014.78 506.802L1014.78 505.794L-434.826 505.794L-434.826 506.802Z" fill="white"/>
<path d="M-431.193 504.786L1018.41 504.786L1018.41 503.778L-431.193 503.778L-431.193 504.786Z" fill="white"/>
<path d="M-169.61 502.77L1280 502.77L1280 501.762L-169.61 501.762L-169.61 502.77Z" fill="white"/>
<path d="M-532.919 500.754L916.686 500.754L916.686 499.746L-532.919 499.746L-532.919 500.754Z" fill="white"/>
<path d="M-601.948 498.738L847.657 498.738L847.657 497.73L-601.948 497.73L-601.948 498.738Z" fill="white"/>
<path d="M-598.315 496.722L851.29 496.722L851.29 495.714L-598.315 495.714L-598.315 496.722Z" fill="white"/>
<path d="M-336.732 494.706L1112.87 494.706L1112.87 493.698L-336.732 493.698L-336.732 494.706Z" fill="white"/>
<path d="M-467.524 492.69L982.082 492.69L982.082 491.683L-467.524 491.682L-467.524 492.69Z" fill="white"/>
<path d="M-463.891 490.675L985.715 490.675L985.715 489.667L-463.891 489.667L-463.891 490.675Z" fill="white"/>
<path d="M-202.308 488.659L1247.3 488.659L1247.3 487.651L-202.308 487.651L-202.308 488.659Z" fill="white"/>
<path d="M-467.524 486.643L982.082 486.643L982.082 485.635L-467.524 485.635L-467.524 486.643Z" fill="white"/>
<path d="M-536.553 484.627L913.053 484.627L913.053 483.619L-536.553 483.619L-536.553 484.627Z" fill="white"/>
<path d="M-532.919 482.611L916.686 482.611L916.686 481.603L-532.919 481.603L-532.919 482.611Z" fill="white"/>
<path d="M-271.337 480.595L1178.27 480.595L1178.27 479.587L-271.337 479.587L-271.337 480.595Z" fill="white"/>
<path d="M-402.128 478.579L1047.48 478.579L1047.48 477.571L-402.128 477.571L-402.128 478.579Z" fill="white"/>
<path d="M-398.495 476.563L1051.11 476.563L1051.11 475.555L-398.495 475.555L-398.495 476.563Z" fill="white"/>
<path d="M-136.912 474.547L1312.69 474.547L1312.69 473.54L-136.912 473.539L-136.912 474.547Z" fill="white"/>
<path d="M-467.524 472.531L982.082 472.532L982.082 471.524L-467.524 471.524L-467.524 472.531Z" fill="white"/>
<path d="M-536.553 470.516L913.053 470.516L913.053 469.508L-536.553 469.508L-536.553 470.516Z" fill="white"/>
<path d="M-532.919 468.5L916.686 468.5L916.686 467.492L-532.919 467.492L-532.919 468.5Z" fill="white"/>
<path d="M-271.337 466.484L1178.27 466.484L1178.27 465.476L-271.337 465.476L-271.337 466.484Z" fill="white"/>
<path d="M-402.128 464.468L1047.48 464.468L1047.48 463.46L-402.128 463.46L-402.128 464.468Z" fill="white"/>
<path d="M-398.495 462.452L1051.11 462.452L1051.11 461.444L-398.495 461.444L-398.495 462.452Z" fill="white"/>
<path d="M-136.912 460.436L1312.69 460.436L1312.69 459.428L-136.912 459.428L-136.912 460.436Z" fill="white"/>
<path d="M-467.524 458.42L982.082 458.42L982.082 457.412L-467.524 457.412L-467.524 458.42Z" fill="white"/>
<path d="M-536.553 456.404L913.053 456.404L913.053 455.396L-536.553 455.396L-536.553 456.404Z" fill="white"/>
<path d="M-532.919 454.388L916.686 454.388L916.686 453.381L-532.919 453.38L-532.919 454.388Z" fill="white"/>
<path d="M-271.337 452.373L1178.27 452.373L1178.27 451.365L-271.337 451.365L-271.337 452.373Z" fill="white"/>
<path d="M-402.128 450.357L1047.48 450.357L1047.48 449.349L-402.128 449.349L-402.128 450.357Z" fill="white"/>
<path d="M-398.495 448.341L1051.11 448.341L1051.11 447.333L-398.495 447.333L-398.495 448.341Z" fill="white"/>
<path d="M-136.912 446.325L1312.69 446.325L1312.69 445.317L-136.912 445.317L-136.912 446.325Z" fill="white"/>
<path d="M-594.682 444.309L854.924 444.309L854.924 443.301L-594.682 443.301L-594.682 444.309Z" fill="white"/>
<path d="M-663.711 442.293L785.895 442.293L785.895 441.285L-663.711 441.285L-663.711 442.293Z" fill="white"/>
<path d="M-660.078 440.277L789.528 440.277L789.528 439.269L-660.078 439.269L-660.078 440.277Z" fill="white"/>
<path d="M-398.495 438.261L1051.11 438.261L1051.11 437.253L-398.495 437.253L-398.495 438.261Z" fill="white"/>
<path d="M-529.286 436.245L920.319 436.245L920.319 435.237L-529.286 435.237L-529.286 436.245Z" fill="white"/>
<path d="M-525.653 434.229L923.952 434.23L923.952 433.222L-525.653 433.222L-525.653 434.229Z" fill="white"/>
<path d="M-264.07 432.214L1185.54 432.214L1185.54 431.206L-264.07 431.206L-264.07 432.214Z" fill="white"/>
<path d="M-529.286 430.198L920.319 430.198L920.319 429.19L-529.286 429.19L-529.286 430.198Z" fill="white"/>
<path d="M-598.315 428.182L851.29 428.182L851.29 427.174L-598.315 427.174L-598.315 428.182Z" fill="white"/>
<path d="M-594.682 426.166L854.924 426.166L854.924 425.158L-594.682 425.158L-594.682 426.166Z" fill="white"/>
<path d="M-333.099 424.15L1116.51 424.15L1116.51 423.142L-333.099 423.142L-333.099 424.15Z" fill="white"/>
<path d="M-463.891 422.134L985.715 422.134L985.715 421.126L-463.891 421.126L-463.891 422.134Z" fill="white"/>
<path d="M-460.258 420.118L989.348 420.118L989.348 419.11L-460.258 419.11L-460.258 420.118Z" fill="white"/>
<path d="M-198.675 418.102L1250.93 418.102L1250.93 417.094L-198.675 417.094L-198.675 418.102Z" fill="white"/>
<path d="M-529.286 416.086L920.319 416.086L920.319 415.079L-529.286 415.078L-529.286 416.086Z" fill="white"/>
<path d="M-598.315 414.071L851.29 414.071L851.29 413.063L-598.315 413.063L-598.315 414.071Z" fill="white"/>
<path d="M-594.682 412.055L854.924 412.055L854.924 411.047L-594.682 411.047L-594.682 412.055Z" fill="white"/>
<path d="M-333.099 410.039L1116.51 410.039L1116.51 409.031L-333.099 409.031L-333.099 410.039Z" fill="white"/>
<path d="M-463.891 408.023L985.715 408.023L985.715 407.015L-463.891 407.015L-463.891 408.023Z" fill="white"/>
<path d="M-460.258 406.007L989.348 406.007L989.348 404.999L-460.258 404.999L-460.258 406.007Z" fill="white"/>
<path d="M-198.675 403.991L1250.93 403.991L1250.93 402.983L-198.675 402.983L-198.675 403.991Z" fill="white"/>
<path d="M-529.286 401.975L920.319 401.975L920.319 400.967L-529.286 400.967L-529.286 401.975Z" fill="white"/>
<path d="M-598.315 399.959L851.29 399.959L851.29 398.951L-598.315 398.951L-598.315 399.959Z" fill="white"/>
<path d="M-594.682 397.943L854.924 397.943L854.924 396.935L-594.682 396.935L-594.682 397.943Z" fill="white"/>
<path d="M-333.099 395.927L1116.51 395.928L1116.51 394.92L-333.099 394.92L-333.099 395.927Z" fill="white"/>
<path d="M-463.891 393.912L985.715 393.912L985.715 392.904L-463.891 392.904L-463.891 393.912Z" fill="white"/>
<path d="M-460.258 391.896L989.348 391.896L989.348 390.888L-460.258 390.888L-460.258 391.896Z" fill="white"/>
<path d="M-198.675 389.88L1250.93 389.88L1250.93 388.872L-198.675 388.872L-198.675 389.88Z" fill="white"/>
<path d="M-561.984 387.864L887.622 387.864L887.622 386.856L-561.984 386.856L-561.984 387.864Z" fill="white"/>
<path d="M-631.013 385.848L818.593 385.848L818.593 384.84L-631.013 384.84L-631.013 385.848Z" fill="white"/>
<path d="M-627.38 383.832L822.226 383.832L822.226 382.824L-627.38 382.824L-627.38 383.832Z" fill="white"/>
<path d="M-365.797 381.816L1083.81 381.816L1083.81 380.808L-365.797 380.808L-365.797 381.816Z" fill="white"/>
<path d="M-496.589 379.8L953.017 379.8L953.017 378.792L-496.589 378.792L-496.589 379.8Z" fill="white"/>
<path d="M-492.956 377.784L956.65 377.784L956.65 376.777L-492.956 376.776L-492.956 377.784Z" fill="white"/>
<path d="M-231.372 375.769L1218.23 375.769L1218.23 374.761L-231.372 374.761L-231.372 375.769Z" fill="white"/>
<path d="M-496.588 373.753L953.017 373.753L953.017 372.745L-496.588 372.745L-496.588 373.753Z" fill="white"/>
<path d="M-565.617 371.737L883.988 371.737L883.988 370.729L-565.617 370.729L-565.617 371.737Z" fill="white"/>
<path d="M-561.984 369.721L887.622 369.721L887.622 368.713L-561.984 368.713L-561.984 369.721Z" fill="white"/>
<path d="M-300.401 367.705L1149.2 367.705L1149.2 366.697L-300.401 366.697L-300.401 367.705Z" fill="white"/>
<path d="M-431.193 365.689L1018.41 365.689L1018.41 364.681L-431.193 364.681L-431.193 365.689Z" fill="white"/>
<path d="M-427.56 363.673L1022.05 363.673L1022.05 362.665L-427.56 362.665L-427.56 363.673Z" fill="white"/>
<path d="M-165.977 361.657L1283.63 361.657L1283.63 360.649L-165.977 360.649L-165.977 361.657Z" fill="white"/>
<path d="M-496.588 359.641L953.017 359.641L953.017 358.633L-496.588 358.633L-496.588 359.641Z" fill="white"/>
<path d="M-565.617 357.625L883.988 357.626L883.988 356.618L-565.617 356.617L-565.617 357.625Z" fill="white"/>
<path d="M-561.984 355.61L887.622 355.61L887.622 354.602L-561.984 354.602L-561.984 355.61Z" fill="white"/>
<path d="M-300.401 353.594L1149.2 353.594L1149.2 352.586L-300.401 352.586L-300.401 353.594Z" fill="white"/>
<path d="M-431.193 351.578L1018.41 351.578L1018.41 350.57L-431.193 350.57L-431.193 351.578Z" fill="white"/>
<path d="M-427.56 349.562L1022.05 349.562L1022.05 348.554L-427.56 348.554L-427.56 349.562Z" fill="white"/>
<path d="M-165.977 347.546L1283.63 347.546L1283.63 346.538L-165.977 346.538L-165.977 347.546Z" fill="white"/>
<path d="M-496.588 345.53L953.017 345.53L953.017 344.522L-496.588 344.522L-496.588 345.53Z" fill="white"/>
<path d="M-565.617 343.514L883.988 343.514L883.988 342.506L-565.617 342.506L-565.617 343.514Z" fill="white"/>
<path d="M-561.984 341.498L887.622 341.498L887.622 340.49L-561.984 340.49L-561.984 341.498Z" fill="white"/>
<path d="M-300.401 339.482L1149.2 339.482L1149.2 338.474L-300.401 338.474L-300.401 339.482Z" fill="white"/>
<path d="M-431.193 337.466L1018.41 337.467L1018.41 336.459L-431.193 336.459L-431.193 337.466Z" fill="white"/>
<path d="M-427.56 335.451L1022.05 335.451L1022.05 334.443L-427.56 334.443L-427.56 335.451Z" fill="white"/>
<path d="M-165.977 333.435L1283.63 333.435L1283.63 332.427L-165.977 332.427L-165.977 333.435Z" fill="white"/>
<path d="M-601.948 331.419L847.658 331.419L847.658 330.411L-601.948 330.411L-601.948 331.419Z" fill="white"/>
<path d="M-670.977 329.403L778.628 329.403L778.628 328.395L-670.977 328.395L-670.977 329.403Z" fill="white"/>
<path d="M-667.344 327.387L782.262 327.387L782.262 326.379L-667.344 326.379L-667.344 327.387Z" fill="white"/>
<path d="M-405.761 325.371L1043.84 325.371L1043.84 324.363L-405.761 324.363L-405.761 325.371Z" fill="white"/>
<path d="M-536.553 323.355L913.053 323.355L913.053 322.347L-536.553 322.347L-536.553 323.355Z" fill="white"/>
<path d="M-532.919 321.339L916.686 321.339L916.686 320.331L-532.919 320.331L-532.919 321.339Z" fill="white"/>
<path d="M-271.337 319.323L1178.27 319.324L1178.27 318.316L-271.337 318.315L-271.337 319.323Z" fill="white"/>
<path d="M-536.552 317.308L913.053 317.308L913.053 316.3L-536.552 316.3L-536.552 317.308Z" fill="white"/>
<path d="M-605.581 315.292L844.024 315.292L844.024 314.284L-605.581 314.284L-605.581 315.292Z" fill="white"/>
<path d="M-601.948 313.276L847.658 313.276L847.658 312.268L-601.948 312.268L-601.948 313.276Z" fill="white"/>
<path d="M-340.365 311.26L1109.24 311.26L1109.24 310.252L-340.365 310.252L-340.365 311.26Z" fill="white"/>
<path d="M-471.157 309.244L978.449 309.244L978.449 308.236L-471.157 308.236L-471.157 309.244Z" fill="white"/>
<path d="M-467.524 307.228L982.082 307.228L982.082 306.22L-467.524 306.22L-467.524 307.228Z" fill="white"/>
<path d="M-205.941 305.212L1243.67 305.212L1243.67 304.204L-205.941 304.204L-205.941 305.212Z" fill="white"/>
<path d="M-536.552 303.196L913.053 303.196L913.053 302.188L-536.552 302.188L-536.552 303.196Z" fill="white"/>
<path d="M-605.581 301.18L844.024 301.18L844.024 300.172L-605.581 300.172L-605.581 301.18Z" fill="white"/>
<path d="M-601.948 299.164L847.658 299.165L847.658 298.157L-601.948 298.156L-601.948 299.164Z" fill="white"/>
<path d="M-340.365 297.149L1109.24 297.149L1109.24 296.141L-340.365 296.141L-340.365 297.149Z" fill="white"/>
<path d="M-471.157 295.133L978.449 295.133L978.449 294.125L-471.157 294.125L-471.157 295.133Z" fill="white"/>
<path d="M-467.524 293.117L982.082 293.117L982.082 292.109L-467.524 292.109L-467.524 293.117Z" fill="white"/>
<path d="M-205.941 291.101L1243.67 291.101L1243.67 290.093L-205.941 290.093L-205.941 291.101Z" fill="white"/>
<path d="M-536.552 289.085L913.053 289.085L913.053 288.077L-536.552 288.077L-536.552 289.085Z" fill="white"/>
<path d="M-605.581 287.069L844.024 287.069L844.024 286.061L-605.581 286.061L-605.581 287.069Z" fill="white"/>
<path d="M-601.948 285.053L847.658 285.053L847.658 284.045L-601.948 284.045L-601.948 285.053Z" fill="white"/>
<path d="M-340.365 283.037L1109.24 283.037L1109.24 282.029L-340.365 282.029L-340.365 283.037Z" fill="white"/>
<path d="M-471.157 281.021L978.449 281.021L978.449 280.014L-471.157 280.013L-471.157 281.021Z" fill="white"/>
<path d="M-467.524 279.006L982.082 279.006L982.082 277.998L-467.524 277.998L-467.524 279.006Z" fill="white"/>
<path d="M-205.941 276.99L1243.67 276.99L1243.67 275.982L-205.941 275.982L-205.941 276.99Z" fill="white"/>
<path d="M-569.25 274.974L880.355 274.974L880.355 273.966L-569.25 273.966L-569.25 274.974Z" fill="white"/>
<path d="M-638.279 272.958L811.327 272.958L811.327 271.95L-638.279 271.95L-638.279 272.958Z" fill="white"/>
<path d="M-634.646 270.942L814.96 270.942L814.96 269.934L-634.646 269.934L-634.646 270.942Z" fill="white"/>
<path d="M-373.063 268.926L1076.54 268.926L1076.54 267.918L-373.063 267.918L-373.063 268.926Z" fill="white"/>
<path d="M-503.855 266.91L945.751 266.91L945.751 265.902L-503.855 265.902L-503.855 266.91Z" fill="white"/>
<path d="M-500.222 264.894L949.384 264.894L949.384 263.886L-500.222 263.886L-500.222 264.894Z" fill="white"/>
<path d="M-238.639 262.878L1210.97 262.878L1210.97 261.87L-238.639 261.87L-238.639 262.878Z" fill="white"/>
<path d="M-503.855 260.862L945.751 260.863L945.751 259.855L-503.855 259.855L-503.855 260.862Z" fill="white"/>
<path d="M-572.883 258.847L876.722 258.847L876.722 257.839L-572.883 257.839L-572.883 258.847Z" fill="white"/>
<path d="M-569.25 256.831L880.355 256.831L880.355 255.823L-569.25 255.823L-569.25 256.831Z" fill="white"/>
<path d="M-307.667 254.815L1141.94 254.815L1141.94 253.807L-307.667 253.807L-307.667 254.815Z" fill="white"/>
<path d="M-438.459 252.799L1011.15 252.799L1011.15 251.791L-438.459 251.791L-438.459 252.799Z" fill="white"/>
<path d="M-434.826 250.783L1014.78 250.783L1014.78 249.775L-434.826 249.775L-434.826 250.783Z" fill="white"/>
<path d="M-173.243 248.767L1276.36 248.767L1276.36 247.759L-173.243 247.759L-173.243 248.767Z" fill="white"/>
<path d="M-503.855 246.751L945.751 246.751L945.751 245.743L-503.855 245.743L-503.855 246.751Z" fill="white"/>
<path d="M-572.883 244.735L876.722 244.735L876.722 243.727L-572.883 243.727L-572.883 244.735Z" fill="white"/>
<path d="M-569.25 242.719L880.355 242.719L880.355 241.712L-569.25 241.711L-569.25 242.719Z" fill="white"/>
<path d="M-307.667 240.704L1141.94 240.704L1141.94 239.696L-307.667 239.696L-307.667 240.704Z" fill="white"/>
<path d="M-438.459 238.688L1011.15 238.688L1011.15 237.68L-438.459 237.68L-438.459 238.688Z" fill="white"/>
<path d="M-434.826 236.672L1014.78 236.672L1014.78 235.664L-434.826 235.664L-434.826 236.672Z" fill="white"/>
<path d="M-173.243 234.656L1276.36 234.656L1276.36 233.648L-173.243 233.648L-173.243 234.656Z" fill="white"/>
<path d="M-503.855 232.64L945.751 232.64L945.751 231.632L-503.855 231.632L-503.855 232.64Z" fill="white"/>
<path d="M-572.883 230.624L876.722 230.624L876.722 229.616L-572.883 229.616L-572.883 230.624Z" fill="white"/>
<path d="M-569.25 228.608L880.355 228.608L880.355 227.6L-569.25 227.6L-569.25 228.608Z" fill="white"/>
<path d="M-307.667 226.592L1141.94 226.592L1141.94 225.584L-307.667 225.584L-307.667 226.592Z" fill="white"/>
<path d="M-438.459 224.576L1011.15 224.576L1011.15 223.568L-438.459 223.568L-438.459 224.576Z" fill="white"/>
<path d="M-434.826 222.56L1014.78 222.561L1014.78 221.553L-434.826 221.553L-434.826 222.56Z" fill="white"/>
<path d="M-173.243 220.545L1276.36 220.545L1276.36 219.537L-173.243 219.537L-173.243 220.545Z" fill="white"/>
<path d="M-550.221 218.529L899.385 218.529L899.385 217.521L-550.221 217.521L-550.221 218.529Z" fill="white"/>
<path d="M-619.25 216.513L830.356 216.513L830.356 215.505L-619.25 215.505L-619.25 216.513Z" fill="white"/>
<path d="M-615.616 214.497L833.989 214.497L833.989 213.489L-615.616 213.489L-615.616 214.497Z" fill="white"/>
<path d="M-354.033 212.481L1095.57 212.481L1095.57 211.473L-354.033 211.473L-354.033 212.481Z" fill="white"/>
<path d="M-484.825 210.465L964.781 210.465L964.781 209.457L-484.825 209.457L-484.825 210.465Z" fill="white"/>
<path d="M-481.192 208.449L968.414 208.449L968.414 207.441L-481.192 207.441L-481.192 208.449Z" fill="white"/>
<path d="M-219.609 206.433L1230 206.433L1230 205.425L-219.609 205.425L-219.609 206.433Z" fill="white"/>
<path d="M-484.825 204.417L964.781 204.418L964.781 203.41L-484.825 203.41L-484.825 204.417Z" fill="white"/>
<path d="M-553.854 202.402L895.752 202.402L895.752 201.394L-553.854 201.394L-553.854 202.402Z" fill="white"/>
<path d="M-550.221 200.386L899.385 200.386L899.385 199.378L-550.221 199.378L-550.221 200.386Z" fill="white"/>
<path d="M-288.638 198.37L1160.97 198.37L1160.97 197.362L-288.638 197.362L-288.638 198.37Z" fill="white"/>
<path d="M-419.429 196.354L1030.18 196.354L1030.18 195.346L-419.429 195.346L-419.429 196.354Z" fill="white"/>
<path d="M-415.796 194.338L1033.81 194.338L1033.81 193.33L-415.796 193.33L-415.796 194.338Z" fill="white"/>
<path d="M-154.213 192.322L1295.39 192.322L1295.39 191.314L-154.213 191.314L-154.213 192.322Z" fill="white"/>
<path d="M-484.825 190.306L964.781 190.306L964.781 189.298L-484.825 189.298L-484.825 190.306Z" fill="white"/>
<path d="M-553.854 188.29L895.752 188.29L895.752 187.282L-553.854 187.282L-553.854 188.29Z" fill="white"/>
<path d="M-550.221 186.274L899.385 186.274L899.385 185.267L-550.221 185.266L-550.221 186.274Z" fill="white"/>
<path d="M-288.638 184.259L1160.97 184.259L1160.97 183.251L-288.638 183.25L-288.638 184.259Z" fill="white"/>
<path d="M-419.429 182.243L1030.18 182.243L1030.18 181.235L-419.429 181.235L-419.429 182.243Z" fill="white"/>
<path d="M-415.796 180.227L1033.81 180.227L1033.81 179.219L-415.796 179.219L-415.796 180.227Z" fill="white"/>
<path d="M-154.213 178.211L1295.39 178.211L1295.39 177.203L-154.213 177.203L-154.213 178.211Z" fill="white"/>
<path d="M-484.825 176.195L964.781 176.195L964.781 175.187L-484.825 175.187L-484.825 176.195Z" fill="white"/>
<path d="M-553.854 174.179L895.752 174.179L895.752 173.171L-553.854 173.171L-553.854 174.179Z" fill="white"/>
<path d="M-550.221 172.163L899.385 172.163L899.385 171.155L-550.221 171.155L-550.221 172.163Z" fill="white"/>
<path d="M-288.638 170.147L1160.97 170.147L1160.97 169.139L-288.638 169.139L-288.638 170.147Z" fill="white"/>
<path d="M-419.429 168.131L1030.18 168.131L1030.18 167.123L-419.429 167.123L-419.429 168.131Z" fill="white"/>
<path d="M-415.796 166.115L1033.81 166.116L1033.81 165.108L-415.796 165.107L-415.796 166.115Z" fill="white"/>
<path d="M-154.213 164.1L1295.39 164.1L1295.39 163.092L-154.213 163.092L-154.213 164.1Z" fill="white"/>
<path d="M-517.522 162.084L932.083 162.084L932.083 161.076L-517.522 161.076L-517.522 162.084Z" fill="white"/>
<path d="M-586.551 160.068L863.054 160.068L863.054 159.06L-586.551 159.06L-586.551 160.068Z" fill="white"/>
<path d="M-582.918 158.052L866.687 158.052L866.687 157.044L-582.918 157.044L-582.918 158.052Z" fill="white"/>
<path d="M-321.335 156.036L1128.27 156.036L1128.27 155.028L-321.335 155.028L-321.335 156.036Z" fill="white"/>
<path d="M-452.127 154.02L997.479 154.02L997.479 153.012L-452.127 153.012L-452.127 154.02Z" fill="white"/>
<path d="M-448.494 152.004L1001.11 152.004L1001.11 150.996L-448.494 150.996L-448.494 152.004Z" fill="white"/>
<path d="M-186.911 149.988L1262.7 149.988L1262.7 148.98L-186.911 148.98L-186.911 149.988Z" fill="white"/>
<path d="M-452.127 147.972L997.479 147.972L997.479 146.965L-452.127 146.964L-452.127 147.972Z" fill="white"/>
<path d="M-521.156 145.956L928.45 145.957L928.45 144.949L-521.156 144.949L-521.156 145.956Z" fill="white"/>
<path d="M-517.522 143.941L932.083 143.941L932.083 142.933L-517.522 142.933L-517.522 143.941Z" fill="white"/>
<path d="M-255.94 141.925L1193.67 141.925L1193.67 140.917L-255.94 140.917L-255.94 141.925Z" fill="white"/>
<path d="M-386.731 139.909L1062.87 139.909L1062.87 138.901L-386.731 138.901L-386.731 139.909Z" fill="white"/>
<path d="M-383.098 137.893L1066.51 137.893L1066.51 136.885L-383.098 136.885L-383.098 137.893Z" fill="white"/>
<path d="M-121.515 135.877L1328.09 135.877L1328.09 134.869L-121.515 134.869L-121.515 135.877Z" fill="white"/>
<path d="M-452.127 133.861L997.479 133.861L997.479 132.853L-452.127 132.853L-452.127 133.861Z" fill="white"/>
<path d="M-521.156 131.845L928.45 131.845L928.45 130.837L-521.156 130.837L-521.156 131.845Z" fill="white"/>
<path d="M-517.522 129.829L932.083 129.829L932.083 128.821L-517.522 128.821L-517.522 129.829Z" fill="white"/>
<path d="M-255.94 127.813L1193.67 127.814L1193.67 126.806L-255.94 126.805L-255.94 127.813Z" fill="white"/>
<path d="M-386.731 125.798L1062.87 125.798L1062.87 124.79L-386.731 124.79L-386.731 125.798Z" fill="white"/>
<path d="M-383.098 123.782L1066.51 123.782L1066.51 122.774L-383.098 122.774L-383.098 123.782Z" fill="white"/>
<path d="M-121.515 121.766L1328.09 121.766L1328.09 120.758L-121.515 120.758L-121.515 121.766Z" fill="white"/>
<path d="M-452.127 119.75L997.479 119.75L997.479 118.742L-452.127 118.742L-452.127 119.75Z" fill="white"/>
<path d="M-521.156 117.734L928.45 117.734L928.45 116.726L-521.156 116.726L-521.156 117.734Z" fill="white"/>
<path d="M-517.522 115.718L932.083 115.718L932.083 114.71L-517.522 114.71L-517.522 115.718Z" fill="white"/>
<path d="M-255.94 113.702L1193.67 113.702L1193.67 112.694L-255.94 112.694L-255.94 113.702Z" fill="white"/>
<path d="M-386.731 111.686L1062.87 111.686L1062.87 110.678L-386.731 110.678L-386.731 111.686Z" fill="white"/>
<path d="M-383.098 109.67L1066.51 109.67L1066.51 108.662L-383.098 108.662L-383.098 109.67Z" fill="white"/>
<path d="M-121.515 107.654L1328.09 107.655L1328.09 106.647L-121.515 106.647L-121.515 107.654Z" fill="white"/>
<path d="M-557.486 105.639L892.119 105.639L892.119 104.631L-557.486 104.631L-557.486 105.639Z" fill="white"/>
<path d="M-626.516 103.623L823.09 103.623L823.09 102.615L-626.516 102.615L-626.516 103.623Z" fill="white"/>
<path d="M-622.883 101.607L826.723 101.607L826.723 100.599L-622.883 100.599L-622.883 101.607Z" fill="white"/>
<path d="M-361.299 99.5909L1088.31 99.591L1088.31 98.583L-361.299 98.583L-361.299 99.5909Z" fill="white"/>
<path d="M-492.091 97.575L957.515 97.5751L957.515 96.5671L-492.091 96.567L-492.091 97.575Z" fill="white"/>
<path d="M-488.458 95.5591L961.148 95.5592L961.148 94.5512L-488.458 94.5512L-488.458 95.5591Z" fill="white"/>
<path d="M-226.875 93.5432L1222.73 93.5433L1222.73 92.5353L-226.875 92.5353L-226.875 93.5432Z" fill="white"/>
<path d="M-492.091 91.5273L957.515 91.5274L957.515 90.5194L-492.091 90.5194L-492.091 91.5273Z" fill="white"/>
<path d="M-561.119 89.5114L888.486 89.5114L888.486 88.5035L-561.119 88.5034L-561.119 89.5114Z" fill="white"/>
<path d="M-557.486 87.4955L892.119 87.4955L892.119 86.4876L-557.486 86.4875L-557.486 87.4955Z" fill="white"/>
<path d="M-295.904 85.4796L1153.7 85.4796L1153.7 84.4717L-295.904 84.4716L-295.904 85.4796Z" fill="white"/>
<path d="M-426.695 83.4637L1022.91 83.4637L1022.91 82.4558L-426.695 82.4557L-426.695 83.4637Z" fill="white"/>
<path d="M-423.062 81.4478L1026.54 81.4478L1026.54 80.4399L-423.062 80.4398L-423.062 81.4478Z" fill="white"/>
<path d="M-161.479 79.4319L1288.13 79.432L1288.13 78.424L-161.479 78.4239L-161.479 79.4319Z" fill="white"/>
<path d="M-492.091 77.416L957.515 77.416L957.515 76.4081L-492.091 76.408L-492.091 77.416Z" fill="white"/>
<path d="M-561.119 75.4001L888.486 75.4002L888.486 74.3922L-561.119 74.3921L-561.119 75.4001Z" fill="white"/>
<path d="M-557.486 73.3842L892.119 73.3843L892.119 72.3763L-557.486 72.3762L-557.486 73.3842Z" fill="white"/>
<path d="M-295.904 71.3683L1153.7 71.3684L1153.7 70.3604L-295.904 70.3604L-295.904 71.3683Z" fill="white"/>
<path d="M-426.695 69.3524L1022.91 69.3525L1022.91 68.3445L-426.695 68.3445L-426.695 69.3524Z" fill="white"/>
<path d="M-423.062 67.3365L1026.54 67.3366L1026.54 66.3286L-423.062 66.3286L-423.062 67.3365Z" fill="white"/>
<path d="M-161.479 65.3206L1288.13 65.3207L1288.13 64.3127L-161.479 64.3127L-161.479 65.3206Z" fill="white"/>
<path d="M-492.091 63.3047L957.515 63.3048L957.515 62.2968L-492.091 62.2968L-492.091 63.3047Z" fill="white"/>
<path d="M-561.119 61.2888L888.486 61.2889L888.486 60.2809L-561.119 60.2809L-561.119 61.2888Z" fill="white"/>
<path d="M-557.486 59.2729L892.119 59.273L892.119 58.265L-557.486 58.265L-557.486 59.2729Z" fill="white"/>
<path d="M-295.904 57.257L1153.7 57.2571L1153.7 56.2492L-295.904 56.2491L-295.904 57.257Z" fill="white"/>
<path d="M-426.695 55.2411L1022.91 55.2412L1022.91 54.2333L-426.695 54.2332L-426.695 55.2411Z" fill="white"/>
<path d="M-423.062 53.2252L1026.54 53.2253L1026.54 52.2174L-423.062 52.2173L-423.062 53.2252Z" fill="white"/>
<path d="M-161.479 51.2094L1288.13 51.2094L1288.13 50.2015L-161.479 50.2014L-161.479 51.2094Z" fill="white"/>
<path d="M-524.789 49.1934L924.817 49.1935L924.817 48.1856L-524.789 48.1855L-524.789 49.1934Z" fill="white"/>
<path d="M-593.817 47.1775L855.788 47.1776L855.788 46.1697L-593.817 46.1696L-593.817 47.1775Z" fill="white"/>
<path d="M-590.184 45.1617L859.421 45.1617L859.421 44.1538L-590.184 44.1537L-590.184 45.1617Z" fill="white"/>
<path d="M-328.601 43.1458L1121 43.1458L1121 42.1379L-328.601 42.1378L-328.601 43.1458Z" fill="white"/>
<path d="M-459.393 41.1299L990.213 41.1299L990.213 40.122L-459.393 40.1219L-459.393 41.1299Z" fill="white"/>
<path d="M-455.76 39.114L993.846 39.114L993.846 38.1061L-455.76 38.106L-455.76 39.114Z" fill="white"/>
<path d="M-194.177 37.0981L1255.43 37.0982L1255.43 36.0902L-194.177 36.0901L-194.177 37.0981Z" fill="white"/>
<path d="M-459.393 35.0822L990.213 35.0823L990.213 34.0744L-459.393 34.0742L-459.393 35.0822Z" fill="white"/>
<path d="M-528.422 33.0663L921.184 33.0664L921.184 32.0584L-528.422 32.0583L-528.422 33.0663Z" fill="white"/>
<path d="M-524.789 31.0504L924.817 31.0505L924.817 30.0425L-524.789 30.0424L-524.789 31.0504Z" fill="white"/>
<path d="M-263.206 29.0345L1186.4 29.0346L1186.4 28.0266L-263.206 28.0266L-263.206 29.0345Z" fill="white"/>
<path d="M-393.997 27.0187L1055.61 27.0187L1055.61 26.0108L-393.997 26.0107L-393.997 27.0187Z" fill="white"/>
<path d="M-390.364 25.0028L1059.24 25.0028L1059.24 23.9949L-390.364 23.9948L-390.364 25.0028Z" fill="white"/>
<path d="M-128.781 22.9869L1320.82 22.987L1320.82 21.9789L-128.781 21.9789L-128.781 22.9869Z" fill="white"/>
<path d="M-459.393 20.9709L990.213 20.971L990.213 19.963L-459.393 19.963L-459.393 20.9709Z" fill="white"/>
<path d="M-528.422 18.955L921.184 18.9551L921.184 17.9471L-528.422 17.9471L-528.422 18.955Z" fill="white"/>
<path d="M-524.789 16.9391L924.817 16.9392L924.817 15.9312L-524.789 15.9312L-524.789 16.9391Z" fill="white"/>
<path d="M-263.206 14.9232L1186.4 14.9233L1186.4 13.9154L-263.206 13.9153L-263.206 14.9232Z" fill="white"/>
<path d="M-393.997 12.9073L1055.61 12.9075L1055.61 11.8995L-393.997 11.8994L-393.997 12.9073Z" fill="white"/>
<path d="M-390.364 10.8914L1059.24 10.8916L1059.24 9.88356L-390.364 9.88349L-390.364 10.8914Z" fill="white"/>
<path d="M-128.781 8.87556L1320.82 8.87569L1320.82 7.86768L-128.781 7.86761L-128.781 8.87556Z" fill="white"/>
<path d="M-459.393 6.85965L990.213 6.85971L990.213 5.85177L-459.393 5.8517L-459.393 6.85965Z" fill="white"/>
<path d="M-528.422 4.84375L921.184 4.84381L921.184 3.83587L-528.422 3.8358L-528.422 4.84375Z" fill="white"/>
<path d="M-524.789 2.82785L924.817 2.82792L924.817 1.81997L-524.789 1.8199L-524.789 2.82785Z" fill="white"/>
<path d="M-263.206 0.811969L1186.4 0.812037L1186.4 -0.195911L-263.206 -0.195979L-263.206 0.811969Z" fill="white"/>
<path d="M-393.997 -1.20393L1055.61 -1.2038L1055.61 -2.21181L-393.997 -2.21188L-393.997 -1.20393Z" fill="white"/>
<path d="M-390.364 -3.21983L1059.24 -3.2197L1059.24 -4.22771L-390.364 -4.22778L-390.364 -3.21983Z" fill="white"/>
<path d="M-128.781 -5.23571L1320.82 -5.23558L1320.82 -6.24359L-128.781 -6.24366L-128.781 -5.23571Z" fill="white"/>
<path d="M-586.551 -7.25163L863.055 -7.25156L863.055 -8.25951L-586.551 -8.25964L-586.551 -7.25163Z" fill="white"/>
<path d="M-655.58 -9.26759L794.026 -9.26752L794.026 -10.2755L-655.58 -10.2755L-655.58 -9.26759Z" fill="white"/>
<path d="M-651.947 -11.2835L797.659 -11.2834L797.659 -12.2914L-651.947 -12.2914L-651.947 -11.2835Z" fill="white"/>
<path d="M-390.364 -13.2994L1059.24 -13.2993L1059.24 -14.3072L-390.364 -14.3073L-390.364 -13.2994Z" fill="white"/>
<path d="M-521.155 -15.3152L928.45 -15.3151L928.45 -16.3231L-521.155 -16.3232L-521.155 -15.3152Z" fill="white"/>
<path d="M-517.522 -17.3311L932.083 -17.331L932.083 -18.339L-517.522 -18.339L-517.522 -17.3311Z" fill="white"/>
<path d="M-255.939 -19.347L1193.67 -19.3469L1193.67 -20.3549L-255.939 -20.3549L-255.939 -19.347Z" fill="white"/>
<path d="M-521.155 -21.3629L928.45 -21.3628L928.45 -22.3708L-521.155 -22.3708L-521.155 -21.3629Z" fill="white"/>
<path d="M-590.184 -23.3788L859.421 -23.3787L859.421 -24.3867L-590.184 -24.3868L-590.184 -23.3788Z" fill="white"/>
<path d="M-586.551 -25.3947L863.055 -25.3946L863.055 -26.4026L-586.551 -26.4027L-586.551 -25.3947Z" fill="white"/>
</g>
</g>
</g>
</svg>
