<svg width="180" height="211" viewBox="0 0 199 262" fill="none" xmlns="http://www.w3.org/2000/svg">
<mask id="mask0_686_981" style="mask-type:alpha" maskUnits="userSpaceOnUse" x="0" y="0" width="199" height="262">
<path d="M92.0836 99.8208C128.426 99.8208 155.314 106.942 172.749 121.184C190.183 135.181 198.901 154.334 198.901 178.644C198.901 194.114 195.095 208.111 187.482 220.635C179.87 233.158 168.452 243.103 153.227 250.47C138.003 257.836 119.218 261.52 96.8719 261.52C78.4552 261.52 60.6524 258.941 43.4634 253.785C26.2745 248.382 11.7866 241.016 -6.10352e-05 231.685L20.2583 194.483C29.835 202.341 41.2534 208.602 54.5135 213.268C68.0191 217.688 81.893 219.898 96.1353 219.898C113.079 219.898 126.339 216.46 135.915 209.585C145.738 202.463 150.649 192.764 150.649 180.486C150.649 167.226 145.369 157.281 134.81 150.651C124.497 143.775 106.694 140.338 81.4019 140.338H19.1533L32.4134 0.0020752H183.799V40.1506H72.9302L67.4052 99.8208H92.0836Z" fill="black"/>
</mask>
<g mask="url(#mask0_686_981)">
<rect width="932.597" height="39.7227" transform="matrix(-0.707107 0.707107 0.707107 0.707107 172.173 -146.732)" fill="#00BAF6"/>
<rect width="932.597" height="16.2913" transform="matrix(-0.707107 0.707107 0.707107 0.707107 255.042 -126.48)" fill="#00BAF6"/>
<rect width="932.597" height="9.77476" transform="matrix(-0.707107 0.707107 0.707107 0.707107 433.283 -244.845)" fill="#00BAF6"/>
<rect width="932.597" height="6.51651" transform="matrix(-0.707107 0.707107 0.707107 0.707107 407.297 -169.226)" fill="#00BAF6"/>
<rect width="932.597" height="4.88738" transform="matrix(-0.707107 0.707107 0.707107 0.707107 391.922 -110.548)" fill="#00BAF6"/>
<rect width="932.597" height="3.25825" transform="matrix(-0.707107 0.707107 0.707107 0.707107 323.054 -6.09399)" fill="#00BAF6"/>
<rect width="932.597" height="2.42903" transform="matrix(-0.707107 0.707107 0.707107 0.707107 452.557 -106.186)" fill="#00BAF6"/>
<rect width="932.597" height="1.66186" transform="matrix(-0.707107 0.707107 0.707107 0.707107 464.835 -96.3636)" fill="#00BAF6"/>
<rect width="932.597" height="1.01522" transform="matrix(-0.707107 0.707107 0.707107 0.707107 489.391 -104.958)" fill="#00BAF6"/>
<rect width="932.597" height="0.624054" transform="matrix(-0.707107 0.707107 0.707107 0.707107 490.618 -93.908)" fill="#00BAF6"/>
<rect width="349.887" height="0.234129" transform="matrix(-0.707107 0.707107 0.707107 0.707107 299.332 109.656)" fill="#00BAF6"/>
</g>
</svg>
