<svg width="52" height="211" viewBox="0 0 52 211" fill="none" xmlns="http://www.w3.org/2000/svg">
<mask id="mask0_112_97" style="mask-type:alpha" maskUnits="userSpaceOnUse" x="0" y="0" width="52" height="211">
<rect y="0.00256348" width="52" height="210" fill="#C4C4C4"/>
</mask>
<g mask="url(#mask0_112_97)">
<rect width="759.579" height="10.8688" transform="matrix(0.707107 -0.707107 -0.707107 -0.707107 -142.37 332.276)" fill="#00BAF6"/>
<rect width="759.579" height="41.342" transform="matrix(0.707107 -0.707107 -0.707107 -0.707107 -86.822 364.824)" fill="#00BAF6"/>
<rect width="759.579" height="10.8688" transform="matrix(0.707107 -0.707107 -0.707107 -0.707107 -168.369 439.277)" fill="#00BAF6"/>
<rect width="759.579" height="6.52129" transform="matrix(0.707107 -0.707107 -0.707107 -0.707107 -283.132 433.092)" fill="#00BAF6"/>
<rect width="759.579" height="4.34753" transform="matrix(0.707107 -0.707107 -0.707107 -0.707107 -258.311 375.158)" fill="#00BAF6"/>
<rect width="759.579" height="3.26065" transform="matrix(0.707107 -0.707107 -0.707107 -0.707107 -241.599 330.556)" fill="#00BAF6"/>
<rect width="759.579" height="2.17376" transform="matrix(0.707107 -0.707107 -0.707107 -0.707107 -183.886 248.102)" fill="#00BAF6"/>
<rect width="759.579" height="1.4954" transform="matrix(0.707107 -0.707107 -0.707107 -0.707107 -188.886 230.102)" fill="#00BAF6"/>
<rect width="759.579" height="0.941387" transform="matrix(0.707107 -0.707107 -0.707107 -0.707107 -290.886 313.102)" fill="#00BAF6"/>
<rect width="759.579" height="0.552424" transform="matrix(0.707107 -0.707107 -0.707107 -0.707107 -285.161 291.827)" fill="#00BAF6"/>
<rect width="759.579" height="0.312215" transform="matrix(0.707107 -0.707107 -0.707107 -0.707107 -283.331 281.657)" fill="#00BAF6"/>
</g>
</svg>
